<svg width="485" height="374" viewBox="0 0 485 374" fill="none" xmlns="http://www.w3.org/2000/svg">
<mask id="path-1-outside-1_280_33" maskUnits="userSpaceOnUse" x="6" y="102" width="478" height="197" fill="black">
<rect fill="white" x="6" y="102" width="478" height="197"/>
<path d="M126.479 241.416C126.479 251.995 123.875 261.11 118.667 268.76C113.54 276.41 106.134 282.269 96.4502 286.338C86.8473 290.407 75.3727 292.441 62.0264 292.441C55.516 292.441 49.2904 292.075 43.3496 291.343C37.4089 290.61 31.7936 289.552 26.5039 288.169C21.2956 286.704 16.5348 284.954 12.2217 282.92V255.332C19.4645 258.506 27.5618 261.395 36.5137 263.999C45.4655 266.522 54.5801 267.783 63.8574 267.783C71.4258 267.783 77.6921 266.807 82.6562 264.854C87.7018 262.819 91.4453 259.971 93.8867 256.309C96.3281 252.565 97.5488 248.211 97.5488 243.247C97.5488 237.957 96.1247 233.481 93.2764 229.819C90.4281 226.157 86.1149 222.821 80.3369 219.81C74.6403 216.717 67.4788 213.421 58.8525 209.922C52.9932 207.562 47.3779 204.876 42.0068 201.865C36.7171 198.854 31.9971 195.314 27.8467 191.245C23.6963 187.176 20.4004 182.375 17.959 176.841C15.599 171.226 14.4189 164.634 14.4189 157.065C14.4189 146.974 16.8197 138.348 21.6211 131.187C26.5039 124.025 33.3398 118.532 42.1289 114.707C50.9993 110.882 61.3346 108.97 73.1348 108.97C82.4935 108.97 91.2826 109.946 99.502 111.899C107.803 113.853 115.941 116.619 123.916 120.2L114.639 143.76C107.314 140.749 100.194 138.348 93.2764 136.558C86.4404 134.767 79.4417 133.872 72.2803 133.872C66.0954 133.872 60.8464 134.808 56.5332 136.68C52.2201 138.551 48.9242 141.196 46.6455 144.614C44.4482 147.951 43.3496 151.938 43.3496 156.577C43.3496 161.785 44.611 166.18 47.1338 169.761C49.738 173.26 53.7256 176.475 59.0967 179.404C64.5492 182.334 71.5479 185.589 80.0928 189.17C89.9398 193.239 98.2812 197.511 105.117 201.987C112.035 206.463 117.324 211.834 120.986 218.101C124.648 224.285 126.479 232.057 126.479 241.416ZM244.15 290H214.976V209.434H132.7V290H103.403V111.533H132.7V184.531H214.976V111.533H244.15V290ZM374.639 290H345.464V209.434H263.188V290H233.892V111.533H263.188V184.531H345.464V111.533H374.639V290ZM477.051 290H348.755V269.858L439.575 136.436H351.562V111.533H474.609V131.553L383.789 265.098H477.051V290Z"/>
</mask>
<path d="M126.479 241.416C126.479 251.995 123.875 261.11 118.667 268.76C113.54 276.41 106.134 282.269 96.4502 286.338C86.8473 290.407 75.3727 292.441 62.0264 292.441C55.516 292.441 49.2904 292.075 43.3496 291.343C37.4089 290.61 31.7936 289.552 26.5039 288.169C21.2956 286.704 16.5348 284.954 12.2217 282.92V255.332C19.4645 258.506 27.5618 261.395 36.5137 263.999C45.4655 266.522 54.5801 267.783 63.8574 267.783C71.4258 267.783 77.6921 266.807 82.6562 264.854C87.7018 262.819 91.4453 259.971 93.8867 256.309C96.3281 252.565 97.5488 248.211 97.5488 243.247C97.5488 237.957 96.1247 233.481 93.2764 229.819C90.4281 226.157 86.1149 222.821 80.3369 219.81C74.6403 216.717 67.4788 213.421 58.8525 209.922C52.9932 207.562 47.3779 204.876 42.0068 201.865C36.7171 198.854 31.9971 195.314 27.8467 191.245C23.6963 187.176 20.4004 182.375 17.959 176.841C15.599 171.226 14.4189 164.634 14.4189 157.065C14.4189 146.974 16.8197 138.348 21.6211 131.187C26.5039 124.025 33.3398 118.532 42.1289 114.707C50.9993 110.882 61.3346 108.97 73.1348 108.97C82.4935 108.97 91.2826 109.946 99.502 111.899C107.803 113.853 115.941 116.619 123.916 120.2L114.639 143.76C107.314 140.749 100.194 138.348 93.2764 136.558C86.4404 134.767 79.4417 133.872 72.2803 133.872C66.0954 133.872 60.8464 134.808 56.5332 136.68C52.2201 138.551 48.9242 141.196 46.6455 144.614C44.4482 147.951 43.3496 151.938 43.3496 156.577C43.3496 161.785 44.611 166.18 47.1338 169.761C49.738 173.26 53.7256 176.475 59.0967 179.404C64.5492 182.334 71.5479 185.589 80.0928 189.17C89.9398 193.239 98.2812 197.511 105.117 201.987C112.035 206.463 117.324 211.834 120.986 218.101C124.648 224.285 126.479 232.057 126.479 241.416ZM244.15 290H214.976V209.434H132.7V290H103.403V111.533H132.7V184.531H214.976V111.533H244.15V290ZM374.639 290H345.464V209.434H263.188V290H233.892V111.533H263.188V184.531H345.464V111.533H374.639V290ZM477.051 290H348.755V269.858L439.575 136.436H351.562V111.533H474.609V131.553L383.789 265.098H477.051V290Z" fill="white"/>
<path d="M118.667 268.76L113.707 265.383L113.695 265.401L113.683 265.419L118.667 268.76ZM96.4502 286.338L94.126 280.806L94.1177 280.81L94.1093 280.813L96.4502 286.338ZM26.5039 288.169L24.8794 293.945L24.9325 293.96L24.9857 293.974L26.5039 288.169ZM12.2217 282.92H6.22168V286.724L9.66197 288.346L12.2217 282.92ZM12.2217 255.332L14.6298 249.837L6.22168 246.152V255.332H12.2217ZM36.5137 263.999L34.8377 269.76L34.8619 269.767L34.8862 269.774L36.5137 263.999ZM82.6562 264.854L84.853 270.437L84.8766 270.428L84.9001 270.418L82.6562 264.854ZM93.8867 256.309L98.879 259.637L98.8958 259.612L98.9124 259.586L93.8867 256.309ZM80.3369 219.81L77.4744 225.083L77.519 225.107L77.5641 225.13L80.3369 219.81ZM58.8525 209.922L61.108 204.362L61.1011 204.359L61.0942 204.356L58.8525 209.922ZM42.0068 201.865L39.0386 207.08L39.0557 207.089L39.0728 207.099L42.0068 201.865ZM17.959 176.841L12.4277 179.166L12.4481 179.214L12.4695 179.263L17.959 176.841ZM21.6211 131.187L16.6637 127.807L16.6506 127.826L16.6375 127.845L21.6211 131.187ZM42.1289 114.707L39.7532 109.197L39.7439 109.201L39.7347 109.205L42.1289 114.707ZM99.502 111.899L98.1148 117.737L98.1277 117.74L99.502 111.899ZM123.916 120.2L129.499 122.399L131.596 117.072L126.374 114.727L123.916 120.2ZM114.639 143.76L112.357 149.309L117.99 151.625L120.221 145.958L114.639 143.76ZM93.2764 136.558L91.7562 142.362L91.7646 142.364L91.773 142.366L93.2764 136.558ZM46.6455 144.614L41.6532 141.286L41.6438 141.3L41.6345 141.314L46.6455 144.614ZM47.1338 169.761L42.2289 173.216L42.2738 173.28L42.3204 173.343L47.1338 169.761ZM59.0967 179.404L56.2236 184.672L56.2401 184.681L56.2568 184.69L59.0967 179.404ZM80.0928 189.17L77.7739 194.704L77.7876 194.709L77.8014 194.715L80.0928 189.17ZM105.117 201.987L101.83 207.007L101.844 207.016L101.858 207.025L105.117 201.987ZM120.986 218.101L115.806 221.128L115.815 221.143L115.823 221.158L120.986 218.101ZM120.479 241.416C120.479 250.969 118.144 258.867 113.707 265.383L123.627 272.137C129.607 263.354 132.479 253.022 132.479 241.416H120.479ZM113.683 265.419C109.298 271.962 102.885 277.126 94.126 280.806L98.7744 291.869C109.384 287.412 117.782 280.857 123.651 272.1L113.683 265.419ZM94.1093 280.813C85.4228 284.494 74.7843 286.441 62.0264 286.441V298.441C75.9612 298.441 88.2719 296.32 98.7911 291.862L94.1093 280.813ZM62.0264 286.441C55.7403 286.441 49.7609 286.088 44.0838 285.388L42.6154 297.298C48.8198 298.063 55.2916 298.441 62.0264 298.441V286.441ZM44.0838 285.388C38.3829 284.685 33.0312 283.674 28.0221 282.364L24.9857 293.974C30.556 295.431 36.4349 296.536 42.6154 297.298L44.0838 285.388ZM28.1284 282.393C23.199 281.007 18.756 279.368 14.7814 277.493L9.66197 288.346C14.3136 290.541 19.3921 292.402 24.8794 293.945L28.1284 282.393ZM18.2217 282.92V255.332H6.22168V282.92H18.2217ZM9.81353 260.828C17.332 264.122 25.6791 267.096 34.8377 269.76L38.1896 258.238C29.4446 255.694 21.597 252.89 14.6298 249.837L9.81353 260.828ZM34.8862 269.774C44.3663 272.446 54.0284 273.783 63.8574 273.783V261.783C55.1317 261.783 46.5647 260.598 38.1412 258.224L34.8862 269.774ZM63.8574 273.783C71.8874 273.783 78.962 272.755 84.853 270.437L80.4595 259.27C76.4221 260.859 70.9642 261.783 63.8574 261.783V273.783ZM84.9001 270.418C90.7994 268.039 95.624 264.519 98.879 259.637L88.8944 252.98C87.2666 255.422 84.6042 257.599 80.4124 259.289L84.9001 270.418ZM98.9124 259.586C102.059 254.762 103.549 249.242 103.549 243.247H91.5488C91.5488 247.181 90.5974 250.369 88.8611 253.031L98.9124 259.586ZM103.549 243.247C103.549 236.819 101.793 230.996 98.0125 226.136L88.5403 233.503C90.4566 235.967 91.5488 239.095 91.5488 243.247H103.549ZM98.0125 226.136C94.4662 221.576 89.3637 217.748 83.1097 214.489L77.5641 225.13C82.8661 227.893 86.3899 230.738 88.5403 233.503L98.0125 226.136ZM83.1995 214.536C77.2417 211.302 69.8607 207.913 61.108 204.362L56.5971 215.482C65.097 218.93 72.0389 222.132 77.4744 225.083L83.1995 214.536ZM61.0942 204.356C55.4663 202.09 50.0828 199.514 44.9409 196.632L39.0728 207.099C44.673 210.238 50.52 213.034 56.6109 215.487L61.0942 204.356ZM44.975 196.651C40.1132 193.883 35.8115 190.651 32.0471 186.961L23.6463 195.53C28.1827 199.977 33.3211 203.825 39.0386 207.08L44.975 196.651ZM32.0471 186.961C28.4628 183.447 25.5951 179.285 23.4485 174.419L12.4695 179.263C15.2057 185.465 18.9298 190.906 23.6463 195.53L32.0471 186.961ZM23.4903 174.516C21.5048 169.792 20.4189 164.023 20.4189 157.065H8.41895C8.41895 165.245 9.69309 172.659 12.4277 179.166L23.4903 174.516ZM20.4189 157.065C20.4189 147.957 22.5727 140.542 26.6047 134.528L16.6375 127.845C11.0667 136.154 8.41895 145.992 8.41895 157.065H20.4189ZM26.5785 134.567C30.7576 128.437 36.6578 123.632 44.5231 120.209L39.7347 109.205C30.0219 113.432 22.2502 119.613 16.6637 127.807L26.5785 134.567ZM44.5046 120.217C52.4781 116.779 61.9752 114.97 73.1348 114.97V102.97C60.6941 102.97 49.5206 104.986 39.7532 109.197L44.5046 120.217ZM73.1348 114.97C82.0759 114.97 90.3957 115.903 98.1148 117.737L100.889 106.062C92.1694 103.99 82.9111 102.97 73.1348 102.97V114.97ZM98.1277 117.74C106.047 119.603 113.823 122.246 121.458 125.674L126.374 114.727C118.058 110.993 109.558 108.102 100.876 106.059L98.1277 117.74ZM118.333 118.002L109.056 141.561L120.221 145.958L129.499 122.399L118.333 118.002ZM116.92 138.21C109.369 135.106 101.989 132.615 94.7798 130.749L91.773 142.366C98.3987 144.081 105.259 146.391 112.357 149.309L116.92 138.21ZM94.7965 130.753C87.4576 128.831 79.9478 127.872 72.2803 127.872V139.872C78.9357 139.872 85.4232 140.703 91.7562 142.362L94.7965 130.753ZM72.2803 127.872C65.5204 127.872 59.4091 128.891 54.1446 131.176L58.9218 142.184C62.2836 140.725 66.6704 139.872 72.2803 139.872V127.872ZM54.1446 131.176C48.9294 133.439 44.6612 136.774 41.6532 141.286L51.6378 147.942C53.1872 145.618 55.5107 143.664 58.9218 142.184L54.1446 131.176ZM41.6345 141.314C38.6933 145.781 37.3496 150.959 37.3496 156.577H49.3496C49.3496 152.918 50.2032 150.121 51.6565 147.914L41.6345 141.314ZM37.3496 156.577C37.3496 162.783 38.867 168.445 42.2289 173.216L52.0387 166.305C50.355 163.915 49.3496 160.788 49.3496 156.577H37.3496ZM42.3204 173.343C45.6065 177.758 50.3777 181.483 56.2236 184.672L61.9698 174.137C57.0735 171.466 53.8694 168.762 51.9472 166.179L42.3204 173.343ZM56.2568 184.69C61.9397 187.743 69.1292 191.081 77.7739 194.704L82.4117 183.636C73.9665 180.097 67.1586 176.925 61.9366 174.119L56.2568 184.69ZM77.8014 194.715C87.3992 198.681 95.3871 202.788 101.83 207.007L108.404 196.968C101.175 192.235 92.4803 187.797 82.3842 183.625L77.8014 194.715ZM101.858 207.025C108.094 211.06 112.679 215.777 115.806 221.128L126.167 215.073C121.97 207.892 115.975 201.867 108.377 196.95L101.858 207.025ZM115.823 221.158C118.796 226.177 120.479 232.816 120.479 241.416H132.479C132.479 231.299 130.501 222.394 126.149 215.044L115.823 221.158ZM244.15 290V296H250.15V290H244.15ZM214.976 290H208.976V296H214.976V290ZM214.976 209.434H220.976V203.434H214.976V209.434ZM132.7 209.434V203.434H126.7V209.434H132.7ZM132.7 290V296H138.7V290H132.7ZM103.403 290H97.4033V296H103.403V290ZM103.403 111.533V105.533H97.4033V111.533H103.403ZM132.7 111.533H138.7V105.533H132.7V111.533ZM132.7 184.531H126.7V190.531H132.7V184.531ZM214.976 184.531V190.531H220.976V184.531H214.976ZM214.976 111.533V105.533H208.976V111.533H214.976ZM244.15 111.533H250.15V105.533H244.15V111.533ZM244.15 284H214.976V296H244.15V284ZM220.976 290V209.434H208.976V290H220.976ZM214.976 203.434H132.7V215.434H214.976V203.434ZM126.7 209.434V290H138.7V209.434H126.7ZM132.7 284H103.403V296H132.7V284ZM109.403 290V111.533H97.4033V290H109.403ZM103.403 117.533H132.7V105.533H103.403V117.533ZM126.7 111.533V184.531H138.7V111.533H126.7ZM132.7 190.531H214.976V178.531H132.7V190.531ZM220.976 184.531V111.533H208.976V184.531H220.976ZM214.976 117.533H244.15V105.533H214.976V117.533ZM238.15 111.533V290H250.15V111.533H238.15ZM374.639 290V296H380.639V290H374.639ZM345.464 290H339.464V296H345.464V290ZM345.464 209.434H351.464V203.434H345.464V209.434ZM263.188 209.434V203.434H257.188V209.434H263.188ZM263.188 290V296H269.188V290H263.188ZM233.892 290H227.892V296H233.892V290ZM233.892 111.533V105.533H227.892V111.533H233.892ZM263.188 111.533H269.188V105.533H263.188V111.533ZM263.188 184.531H257.188V190.531H263.188V184.531ZM345.464 184.531V190.531H351.464V184.531H345.464ZM345.464 111.533V105.533H339.464V111.533H345.464ZM374.639 111.533H380.639V105.533H374.639V111.533ZM374.639 284H345.464V296H374.639V284ZM351.464 290V209.434H339.464V290H351.464ZM345.464 203.434H263.188V215.434H345.464V203.434ZM257.188 209.434V290H269.188V209.434H257.188ZM263.188 284H233.892V296H263.188V284ZM239.892 290V111.533H227.892V290H239.892ZM233.892 117.533H263.188V105.533H233.892V117.533ZM257.188 111.533V184.531H269.188V111.533H257.188ZM263.188 190.531H345.464V178.531H263.188V190.531ZM351.464 184.531V111.533H339.464V184.531H351.464ZM345.464 117.533H374.639V105.533H345.464V117.533ZM368.639 111.533V290H380.639V111.533H368.639ZM477.051 290V296H483.051V290H477.051ZM348.755 290H342.755V296H348.755V290ZM348.755 269.858L343.795 266.482L342.755 268.01V269.858H348.755ZM439.575 136.436L444.535 139.812L450.918 130.436H439.575V136.436ZM351.562 136.436H345.562V142.436H351.562V136.436ZM351.562 111.533V105.533H345.562V111.533H351.562ZM474.609 111.533H480.609V105.533H474.609V111.533ZM474.609 131.553L479.571 134.927L480.609 133.4V131.553H474.609ZM383.789 265.098L378.828 261.724L372.453 271.098H383.789V265.098ZM477.051 265.098H483.051V259.098H477.051V265.098ZM477.051 284H348.755V296H477.051V284ZM354.755 290V269.858H342.755V290H354.755ZM353.715 273.235L444.535 139.812L434.615 133.059L343.795 266.482L353.715 273.235ZM439.575 130.436H351.562V142.436H439.575V130.436ZM357.562 136.436V111.533H345.562V136.436H357.562ZM351.562 117.533H474.609V105.533H351.562V117.533ZM468.609 111.533V131.553H480.609V111.533H468.609ZM469.648 128.179L378.828 261.724L388.75 268.472L479.571 134.927L469.648 128.179ZM383.789 271.098H477.051V259.098H383.789V271.098ZM471.051 265.098V290H483.051V265.098H471.051Z" fill="white" mask="url(#path-1-outside-1_280_33)"/>
<path d="M35.1367 341.379H40.1367L44.5703 353.723C44.7656 354.283 44.9414 354.836 45.0977 355.383C45.2669 355.917 45.4102 356.444 45.5273 356.965C45.6576 357.486 45.7617 358.007 45.8398 358.527H45.957C46.0872 357.85 46.2695 357.095 46.5039 356.262C46.7513 355.415 47.0247 354.569 47.3242 353.723L51.582 341.379H56.5234L47.2461 365.969C46.7122 367.375 46.0547 368.573 45.2734 369.562C44.5052 370.565 43.5938 371.32 42.5391 371.828C41.4844 372.349 40.2799 372.609 38.9258 372.609C38.2747 372.609 37.7083 372.57 37.2266 372.492C36.7448 372.427 36.3346 372.355 35.9961 372.277V368.605C36.2695 368.671 36.6146 368.729 37.0312 368.781C37.4479 368.833 37.8776 368.859 38.3203 368.859C39.1406 368.859 39.8503 368.697 40.4492 368.371C41.0482 368.046 41.556 367.583 41.9727 366.984C42.3893 366.398 42.7344 365.728 43.0078 364.973L43.7695 362.941L35.1367 341.379ZM78.9453 352.141C78.9453 353.938 78.7109 355.533 78.2422 356.926C77.7734 358.319 77.0898 359.497 76.1914 360.461C75.293 361.411 74.2122 362.141 72.9492 362.648C71.6862 363.143 70.2604 363.391 68.6719 363.391C67.1875 363.391 65.8268 363.143 64.5898 362.648C63.3529 362.141 62.2786 361.411 61.3672 360.461C60.4688 359.497 59.7721 358.319 59.2773 356.926C58.7826 355.533 58.5352 353.938 58.5352 352.141C58.5352 349.758 58.9453 347.74 59.7656 346.086C60.599 344.419 61.7839 343.15 63.3203 342.277C64.8568 341.405 66.6862 340.969 68.8086 340.969C70.8008 340.969 72.5586 341.405 74.082 342.277C75.6055 343.15 76.7969 344.419 77.6562 346.086C78.5156 347.753 78.9453 349.771 78.9453 352.141ZM63.2617 352.141C63.2617 353.716 63.4505 355.064 63.8281 356.184C64.2188 357.303 64.8177 358.163 65.625 358.762C66.4323 359.348 67.474 359.641 68.75 359.641C70.026 359.641 71.0677 359.348 71.875 358.762C72.6823 358.163 73.2747 357.303 73.6523 356.184C74.0299 355.064 74.2188 353.716 74.2188 352.141C74.2188 350.565 74.0299 349.23 73.6523 348.137C73.2747 347.03 72.6823 346.19 71.875 345.617C71.0677 345.031 70.0195 344.738 68.7305 344.738C66.8294 344.738 65.4427 345.376 64.5703 346.652C63.6979 347.928 63.2617 349.758 63.2617 352.141ZM103.066 341.379V363H99.4531L98.8281 360.09H98.5742C98.1185 360.832 97.5391 361.451 96.8359 361.945C96.1328 362.427 95.3516 362.785 94.4922 363.02C93.6328 363.267 92.7279 363.391 91.7773 363.391C90.1497 363.391 88.7565 363.117 87.5977 362.57C86.4518 362.01 85.5729 361.151 84.9609 359.992C84.349 358.833 84.043 357.336 84.043 355.5V341.379H88.6523V354.641C88.6523 356.32 88.9909 357.577 89.668 358.41C90.3581 359.243 91.4258 359.66 92.8711 359.66C94.2643 359.66 95.3711 359.374 96.1914 358.801C97.0117 358.228 97.5911 357.382 97.9297 356.262C98.2812 355.142 98.457 353.768 98.457 352.141V341.379H103.066ZM128.75 363.391C126.706 363.391 124.935 362.993 123.438 362.199C121.94 361.405 120.788 360.188 119.98 358.547C119.173 356.906 118.77 354.823 118.77 352.297C118.77 349.667 119.212 347.518 120.098 345.852C120.983 344.185 122.207 342.954 123.77 342.16C125.345 341.366 127.148 340.969 129.18 340.969C130.469 340.969 131.634 341.099 132.676 341.359C133.73 341.607 134.622 341.913 135.352 342.277L133.984 345.949C133.19 345.624 132.376 345.35 131.543 345.129C130.71 344.908 129.909 344.797 129.141 344.797C127.878 344.797 126.823 345.077 125.977 345.637C125.143 346.197 124.518 347.03 124.102 348.137C123.698 349.243 123.496 350.617 123.496 352.258C123.496 353.846 123.704 355.188 124.121 356.281C124.538 357.362 125.156 358.182 125.977 358.742C126.797 359.289 127.806 359.562 129.004 359.562C130.189 359.562 131.25 359.419 132.188 359.133C133.125 358.846 134.01 358.475 134.844 358.02V362.004C134.023 362.473 133.145 362.818 132.207 363.039C131.27 363.273 130.117 363.391 128.75 363.391ZM148.398 340.969C151.133 340.969 153.197 341.574 154.59 342.785C155.996 343.996 156.699 345.884 156.699 348.449V363H153.438L152.559 359.934H152.402C151.79 360.715 151.159 361.359 150.508 361.867C149.857 362.375 149.102 362.753 148.242 363C147.396 363.26 146.361 363.391 145.137 363.391C143.848 363.391 142.695 363.156 141.68 362.688C140.664 362.206 139.863 361.477 139.277 360.5C138.691 359.523 138.398 358.286 138.398 356.789C138.398 354.562 139.225 352.889 140.879 351.77C142.546 350.65 145.059 350.031 148.418 349.914L152.168 349.777V348.645C152.168 347.147 151.816 346.079 151.113 345.441C150.423 344.803 149.447 344.484 148.184 344.484C147.103 344.484 146.055 344.641 145.039 344.953C144.023 345.266 143.034 345.65 142.07 346.105L140.586 342.863C141.641 342.303 142.839 341.848 144.18 341.496C145.534 341.145 146.94 340.969 148.398 340.969ZM152.148 352.668L149.355 352.766C147.064 352.844 145.456 353.234 144.531 353.938C143.607 354.641 143.145 355.604 143.145 356.828C143.145 357.896 143.464 358.677 144.102 359.172C144.74 359.654 145.579 359.895 146.621 359.895C148.21 359.895 149.525 359.445 150.566 358.547C151.621 357.635 152.148 356.301 152.148 354.543V352.668ZM174.395 340.969C176.829 340.969 178.724 341.6 180.078 342.863C181.445 344.113 182.129 346.125 182.129 348.898V363H177.539V349.758C177.539 348.078 177.194 346.822 176.504 345.988C175.814 345.142 174.746 344.719 173.301 344.719C171.204 344.719 169.746 345.363 168.926 346.652C168.118 347.941 167.715 349.81 167.715 352.258V363H163.125V341.379H166.699L167.344 344.309H167.598C168.066 343.553 168.646 342.935 169.336 342.453C170.039 341.958 170.82 341.587 171.68 341.34C172.552 341.092 173.457 340.969 174.395 340.969ZM213.477 356.828C213.477 358.247 213.132 359.445 212.441 360.422C211.751 361.398 210.742 362.141 209.414 362.648C208.099 363.143 206.484 363.391 204.57 363.391C203.06 363.391 201.758 363.28 200.664 363.059C199.583 362.85 198.561 362.525 197.598 362.082V358.117C198.626 358.599 199.779 359.016 201.055 359.367C202.344 359.719 203.561 359.895 204.707 359.895C206.217 359.895 207.305 359.66 207.969 359.191C208.633 358.71 208.965 358.072 208.965 357.277C208.965 356.809 208.828 356.392 208.555 356.027C208.294 355.65 207.799 355.266 207.07 354.875C206.354 354.471 205.299 353.99 203.906 353.43C202.539 352.883 201.387 352.336 200.449 351.789C199.512 351.242 198.802 350.585 198.32 349.816C197.839 349.035 197.598 348.039 197.598 346.828C197.598 344.914 198.353 343.462 199.863 342.473C201.387 341.47 203.398 340.969 205.898 340.969C207.227 340.969 208.477 341.105 209.648 341.379C210.833 341.639 211.992 342.023 213.125 342.531L211.68 345.988C210.703 345.559 209.72 345.207 208.73 344.934C207.754 344.647 206.758 344.504 205.742 344.504C204.557 344.504 203.652 344.686 203.027 345.051C202.415 345.415 202.109 345.936 202.109 346.613C202.109 347.121 202.259 347.551 202.559 347.902C202.858 348.254 203.372 348.605 204.102 348.957C204.844 349.309 205.872 349.745 207.188 350.266C208.477 350.76 209.59 351.281 210.527 351.828C211.478 352.362 212.207 353.02 212.715 353.801C213.223 354.582 213.477 355.591 213.477 356.828ZM226.914 340.969C229.648 340.969 231.712 341.574 233.105 342.785C234.512 343.996 235.215 345.884 235.215 348.449V363H231.953L231.074 359.934H230.918C230.306 360.715 229.674 361.359 229.023 361.867C228.372 362.375 227.617 362.753 226.758 363C225.911 363.26 224.876 363.391 223.652 363.391C222.363 363.391 221.211 363.156 220.195 362.688C219.18 362.206 218.379 361.477 217.793 360.5C217.207 359.523 216.914 358.286 216.914 356.789C216.914 354.562 217.741 352.889 219.395 351.77C221.061 350.65 223.574 350.031 226.934 349.914L230.684 349.777V348.645C230.684 347.147 230.332 346.079 229.629 345.441C228.939 344.803 227.962 344.484 226.699 344.484C225.618 344.484 224.57 344.641 223.555 344.953C222.539 345.266 221.549 345.65 220.586 346.105L219.102 342.863C220.156 342.303 221.354 341.848 222.695 341.496C224.049 341.145 225.456 340.969 226.914 340.969ZM230.664 352.668L227.871 352.766C225.579 352.844 223.971 353.234 223.047 353.938C222.122 354.641 221.66 355.604 221.66 356.828C221.66 357.896 221.979 358.677 222.617 359.172C223.255 359.654 224.095 359.895 225.137 359.895C226.725 359.895 228.04 359.445 229.082 358.547C230.137 357.635 230.664 356.301 230.664 354.543V352.668ZM238.379 341.379H243.379L247.812 353.723C248.008 354.283 248.184 354.836 248.34 355.383C248.509 355.917 248.652 356.444 248.77 356.965C248.9 357.486 249.004 358.007 249.082 358.527H249.199C249.329 357.85 249.512 357.095 249.746 356.262C249.993 355.415 250.267 354.569 250.566 353.723L254.824 341.379H259.766L250.488 365.969C249.954 367.375 249.297 368.573 248.516 369.562C247.747 370.565 246.836 371.32 245.781 371.828C244.727 372.349 243.522 372.609 242.168 372.609C241.517 372.609 240.951 372.57 240.469 372.492C239.987 372.427 239.577 372.355 239.238 372.277V368.605C239.512 368.671 239.857 368.729 240.273 368.781C240.69 368.833 241.12 368.859 241.562 368.859C242.383 368.859 243.092 368.697 243.691 368.371C244.29 368.046 244.798 367.583 245.215 366.984C245.632 366.398 245.977 365.728 246.25 364.973L247.012 362.941L238.379 341.379ZM291.113 362.98L288.379 352.922C288.249 352.427 288.092 351.828 287.91 351.125C287.728 350.422 287.546 349.699 287.363 348.957C287.181 348.202 287.012 347.505 286.855 346.867C286.712 346.229 286.602 345.734 286.523 345.383H286.367C286.302 345.734 286.198 346.229 286.055 346.867C285.911 347.505 285.749 348.202 285.566 348.957C285.384 349.712 285.202 350.448 285.02 351.164C284.85 351.88 284.694 352.492 284.551 353L281.68 362.98H276.641L270.586 341.359H275.234L278.047 352.102C278.229 352.831 278.405 353.618 278.574 354.465C278.757 355.311 278.913 356.118 279.043 356.887C279.173 357.655 279.271 358.286 279.336 358.781H279.492C279.544 358.43 279.616 357.987 279.707 357.453C279.798 356.906 279.902 356.34 280.02 355.754C280.137 355.155 280.254 354.595 280.371 354.074C280.488 353.54 280.599 353.111 280.703 352.785L284.023 341.359H289.043L292.227 352.785C292.37 353.28 292.526 353.905 292.695 354.66C292.865 355.402 293.014 356.151 293.145 356.906C293.288 357.648 293.379 358.267 293.418 358.762H293.574C293.626 358.319 293.717 357.72 293.848 356.965C293.991 356.197 294.154 355.383 294.336 354.523C294.518 353.651 294.707 352.844 294.902 352.102L297.773 341.359H302.344L296.25 362.98H291.113ZM310.645 332.609V340.246C310.645 341.04 310.618 341.815 310.566 342.57C310.527 343.326 310.482 343.911 310.43 344.328H310.684C311.139 343.573 311.699 342.954 312.363 342.473C313.027 341.978 313.77 341.607 314.59 341.359C315.423 341.112 316.309 340.988 317.246 340.988C318.9 340.988 320.306 341.268 321.465 341.828C322.624 342.375 323.509 343.228 324.121 344.387C324.746 345.546 325.059 347.049 325.059 348.898V363H320.469V349.758C320.469 348.078 320.124 346.822 319.434 345.988C318.743 345.142 317.676 344.719 316.23 344.719C314.837 344.719 313.73 345.012 312.91 345.598C312.103 346.171 311.523 347.023 311.172 348.156C310.82 349.276 310.645 350.643 310.645 352.258V363H306.055V332.609H310.645ZM339.961 340.969C342.695 340.969 344.759 341.574 346.152 342.785C347.559 343.996 348.262 345.884 348.262 348.449V363H345L344.121 359.934H343.965C343.353 360.715 342.721 361.359 342.07 361.867C341.419 362.375 340.664 362.753 339.805 363C338.958 363.26 337.923 363.391 336.699 363.391C335.41 363.391 334.258 363.156 333.242 362.688C332.227 362.206 331.426 361.477 330.84 360.5C330.254 359.523 329.961 358.286 329.961 356.789C329.961 354.562 330.788 352.889 332.441 351.77C334.108 350.65 336.621 350.031 339.98 349.914L343.73 349.777V348.645C343.73 347.147 343.379 346.079 342.676 345.441C341.986 344.803 341.009 344.484 339.746 344.484C338.665 344.484 337.617 344.641 336.602 344.953C335.586 345.266 334.596 345.65 333.633 346.105L332.148 342.863C333.203 342.303 334.401 341.848 335.742 341.496C337.096 341.145 338.503 340.969 339.961 340.969ZM343.711 352.668L340.918 352.766C338.626 352.844 337.018 353.234 336.094 353.938C335.169 354.641 334.707 355.604 334.707 356.828C334.707 357.896 335.026 358.677 335.664 359.172C336.302 359.654 337.142 359.895 338.184 359.895C339.772 359.895 341.087 359.445 342.129 358.547C343.184 357.635 343.711 356.301 343.711 354.543V352.668ZM362.734 359.68C363.333 359.68 363.926 359.628 364.512 359.523C365.098 359.406 365.632 359.27 366.113 359.113V362.59C365.605 362.811 364.948 363 364.141 363.156C363.333 363.312 362.493 363.391 361.621 363.391C360.397 363.391 359.297 363.189 358.32 362.785C357.344 362.368 356.569 361.659 355.996 360.656C355.423 359.654 355.137 358.267 355.137 356.496V344.875H352.188V342.824L355.352 341.203L356.855 336.574H359.746V341.379H365.938V344.875H359.746V356.438C359.746 357.531 360.02 358.345 360.566 358.879C361.113 359.413 361.836 359.68 362.734 359.68ZM379.121 340.969C381.048 340.969 382.702 341.366 384.082 342.16C385.462 342.954 386.523 344.081 387.266 345.539C388.008 346.997 388.379 348.742 388.379 350.773V353.234H373.945C373.997 355.331 374.557 356.945 375.625 358.078C376.706 359.211 378.216 359.777 380.156 359.777C381.536 359.777 382.773 359.647 383.867 359.387C384.974 359.113 386.113 358.716 387.285 358.195V361.926C386.204 362.434 385.104 362.805 383.984 363.039C382.865 363.273 381.523 363.391 379.961 363.391C377.839 363.391 375.97 362.98 374.355 362.16C372.754 361.327 371.497 360.09 370.586 358.449C369.688 356.809 369.238 354.771 369.238 352.336C369.238 349.914 369.648 347.857 370.469 346.164C371.289 344.471 372.441 343.182 373.926 342.297C375.41 341.411 377.142 340.969 379.121 340.969ZM379.121 344.426C377.676 344.426 376.504 344.895 375.605 345.832C374.72 346.77 374.199 348.143 374.043 349.953H383.887C383.874 348.872 383.691 347.915 383.34 347.082C383.001 346.249 382.48 345.598 381.777 345.129C381.087 344.66 380.202 344.426 379.121 344.426ZM398.496 363L390.273 341.379H395.137L399.59 354.074C399.876 354.882 400.137 355.754 400.371 356.691C400.605 357.629 400.768 358.417 400.859 359.055H401.016C401.107 358.391 401.283 357.596 401.543 356.672C401.803 355.734 402.07 354.868 402.344 354.074L406.797 341.379H411.641L403.418 363H398.496ZM423.535 340.969C425.462 340.969 427.116 341.366 428.496 342.16C429.876 342.954 430.938 344.081 431.68 345.539C432.422 346.997 432.793 348.742 432.793 350.773V353.234H418.359C418.411 355.331 418.971 356.945 420.039 358.078C421.12 359.211 422.63 359.777 424.57 359.777C425.951 359.777 427.188 359.647 428.281 359.387C429.388 359.113 430.527 358.716 431.699 358.195V361.926C430.618 362.434 429.518 362.805 428.398 363.039C427.279 363.273 425.938 363.391 424.375 363.391C422.253 363.391 420.384 362.98 418.77 362.16C417.168 361.327 415.911 360.09 415 358.449C414.102 356.809 413.652 354.771 413.652 352.336C413.652 349.914 414.062 347.857 414.883 346.164C415.703 344.471 416.855 343.182 418.34 342.297C419.824 341.411 421.556 340.969 423.535 340.969ZM423.535 344.426C422.09 344.426 420.918 344.895 420.02 345.832C419.134 346.77 418.613 348.143 418.457 349.953H428.301C428.288 348.872 428.105 347.915 427.754 347.082C427.415 346.249 426.895 345.598 426.191 345.129C425.501 344.66 424.616 344.426 423.535 344.426ZM448.926 340.969C449.29 340.969 449.688 340.988 450.117 341.027C450.547 341.066 450.918 341.118 451.23 341.184L450.801 345.48C450.527 345.402 450.189 345.344 449.785 345.305C449.395 345.266 449.043 345.246 448.73 345.246C447.91 345.246 447.129 345.383 446.387 345.656C445.645 345.917 444.987 346.32 444.414 346.867C443.841 347.401 443.392 348.072 443.066 348.879C442.741 349.686 442.578 350.624 442.578 351.691V363H437.969V341.379H441.562L442.188 345.188H442.402C442.832 344.419 443.366 343.716 444.004 343.078C444.642 342.44 445.371 341.932 446.191 341.555C447.025 341.164 447.936 340.969 448.926 340.969ZM454.57 360.578C454.57 359.51 454.844 358.762 455.391 358.332C455.951 357.889 456.628 357.668 457.422 357.668C458.216 357.668 458.893 357.889 459.453 358.332C460.026 358.762 460.312 359.51 460.312 360.578C460.312 361.62 460.026 362.375 459.453 362.844C458.893 363.299 458.216 363.527 457.422 363.527C456.628 363.527 455.951 363.299 455.391 362.844C454.844 362.375 454.57 361.62 454.57 360.578ZM465.547 360.578C465.547 359.51 465.82 358.762 466.367 358.332C466.927 357.889 467.604 357.668 468.398 357.668C469.193 357.668 469.87 357.889 470.43 358.332C471.003 358.762 471.289 359.51 471.289 360.578C471.289 361.62 471.003 362.375 470.43 362.844C469.87 363.299 469.193 363.527 468.398 363.527C467.604 363.527 466.927 363.299 466.367 362.844C465.82 362.375 465.547 361.62 465.547 360.578ZM476.523 360.578C476.523 359.51 476.797 358.762 477.344 358.332C477.904 357.889 478.581 357.668 479.375 357.668C480.169 357.668 480.846 357.889 481.406 358.332C481.979 358.762 482.266 359.51 482.266 360.578C482.266 361.62 481.979 362.375 481.406 362.844C480.846 363.299 480.169 363.527 479.375 363.527C478.581 363.527 477.904 363.299 477.344 362.844C476.797 362.375 476.523 361.62 476.523 360.578Z" fill="white"/>
<path fill-rule="evenodd" clip-rule="evenodd" d="M217.857 21.6C217.857 9.67065 227.771 0 240 0C252.229 0 262.143 9.67065 262.143 21.6C262.143 33.5293 252.229 43.2 240 43.2C227.771 43.2 217.857 33.5293 217.857 21.6Z" fill="white"/>
<path fill-rule="evenodd" clip-rule="evenodd" d="M206.401 69.7969C213.475 59.0078 225.878 51.84 240 51.84C254.124 51.84 266.528 59.0096 273.602 69.8009C278.492 77.2613 280.607 86.2571 279.615 95.028C279.46 96.3987 278.643 97.6148 277.417 98.3011C266.391 104.473 253.611 108 240 108C226.389 108 213.609 104.473 202.583 98.3011C201.357 97.6148 200.54 96.3987 200.385 95.028C199.393 86.2555 201.509 77.2581 206.401 69.7969Z" fill="white"/>
<path d="M199.153 64.8212C199.081 64.9278 199.011 65.0346 198.941 65.1418C193.24 73.8369 190.631 84.1921 191.432 94.4007C187.841 93.8687 184.358 93.013 181.014 91.8643L180.335 91.6311C179.097 91.2057 178.232 90.1087 178.127 88.8321L178.07 88.1323C178.024 87.56 178 86.9823 178 86.4C178 74.7944 187.383 65.3265 199.153 64.8212Z" fill="white"/>
<path d="M288.57 94.4004C289.371 84.1939 286.763 73.8407 281.065 65.1466C280.994 65.0379 280.922 64.9295 280.85 64.8213C292.618 65.3277 302 74.7951 302 86.4C302 86.9823 301.976 87.5601 301.93 88.1323L301.873 88.8321C301.768 90.1087 300.903 91.2057 299.665 91.6311L298.986 91.8643C295.643 93.0128 292.16 93.8684 288.57 94.4004Z" fill="white"/>
</svg>
